<?xml version="1.0" standalone="no"?>
<!DOCTYPE svg PUBLIC "-//W3C//DTD SVG 20010904//EN"
 "http://www.w3.org/TR/2001/REC-SVG-20010904/DTD/svg10.dtd">
<svg version="1.0" xmlns="http://www.w3.org/2000/svg"
 width="72.000000pt" height="72.000000pt" viewBox="0 0 72.000000 72.000000"
 preserveAspectRatio="xMidYMid meet">
<metadata>
Created by potrace 1.11, written by Peter Selinger 2001-2013
</metadata>
<g transform="translate(0.000000,72.000000) scale(0.100000,-0.100000)"
fill="#000000" stroke="none">
<path d="M248 540 c6 -8 12 -22 12 -33 0 -14 -5 -17 -22 -11 -20 6 -21 5 -9
-9 11 -14 9 -29 -18 -102 -17 -46 -29 -90 -27 -97 3 -7 7 -25 10 -40 l6 -28
165 0 c152 0 165 1 175 19 20 39 6 111 -23 111 -17 0 -16 82 1 95 17 13 12 67
-6 73 -11 3 -12 0 -3 -17 13 -23 0 -61 -20 -61 -6 0 -7 5 -4 10 4 6 -28 11
-87 12 -51 0 -100 1 -108 2 -8 1 -15 10 -15 21 0 18 8 20 90 23 134 4 145 9
21 11 -87 1 -114 4 -130 18 -12 10 -15 11 -8 3z m9 -92 c-3 -8 -6 -5 -6 6 -1
11 2 17 5 13 3 -3 4 -12 1 -19z m181 -5 c-21 -2 -57 -2 -80 0 -24 2 -7 4 37 4
44 0 63 -2 43 -4z m52 -43 c0 -8 -5 -22 -10 -30 -9 -13 -10 -13 -10 0 0 12
-11 14 -52 12 -29 -2 -71 1 -93 6 -37 9 -38 10 -10 12 17 1 39 5 50 10 11 5
44 8 73 7 39 -1 52 -5 52 -17z m-254 -37 c-11 -11 -19 6 -11 24 8 17 8 17 12
0 3 -10 2 -21 -1 -24z m0 -38 c-3 -8 -1 -15 3 -15 5 0 11 7 15 15 4 12 26 15
111 15 85 0 107 -3 111 -15 4 -8 11 -15 16 -15 6 0 7 7 4 16 -4 11 -1 14 12
12 23 -4 31 -78 8 -78 -8 0 -16 6 -19 13 -2 7 -10 0 -17 -15 l-13 -28 -106 2
-106 2 100 3 c55 2 104 8 110 14 7 7 -24 10 -99 8 -78 -2 -111 0 -114 9 -5 17
-22 15 -22 -4 0 -8 -4 -12 -10 -9 -11 7 -14 68 -3 78 12 13 25 7 19 -8z m284
-85 c0 -5 -8 -10 -17 -10 -15 0 -16 2 -3 10 19 12 20 12 20 0z"/>
<path d="M70 303 c0 -6 8 -17 18 -24 16 -13 16 -13 2 6 -8 11 -16 22 -17 24
-2 2 -3 0 -3 -6z"/>
<path d="M171 283 c-1 -6 -13 -14 -28 -16 -27 -4 -27 -4 -6 -12 13 -4 20 -11
17 -16 -3 -5 -9 -7 -14 -4 -5 3 -11 1 -15 -5 -3 -5 1 -10 9 -10 19 0 50 45 43
62 -4 9 -6 9 -6 1z"/>
</g>
</svg>
